<svg id="Capa_1" enable-background="new 0 0 512 512" height="512" viewBox="0 0 512 512" width="512" xmlns="http://www.w3.org/2000/svg"><g><path d="m256 293.264c-21.413 0-38.834 17.42-38.834 38.833v141.069c0 21.413 17.421 38.834 38.834 38.834s38.834-17.421 38.834-38.834v-141.069c0-21.413-17.421-38.833-38.834-38.833z"/><ellipse cx="256" cy="41.81" rx="41.81" ry="41.81" transform="matrix(.973 -.23 .23 .973 -2.758 59.935)"/><path d="m286.711 113.621h-61.422c-44.623 0-80.925 36.303-80.925 80.925v199.057l42.803 22.671v-84.176c0-37.955 30.879-68.833 68.834-68.833s68.834 30.878 68.834 68.833v87.801l42.803-25.748v-199.605c-.001-44.623-36.304-80.925-80.927-80.925z"/><path d="m184.19 41.81c0-5.144.555-10.159 1.588-15h-67.404v30h67.404c-1.033-4.841-1.588-9.856-1.588-15z"/><path d="m326.223 26.81c1.033 4.841 1.588 9.856 1.588 15s-.555 10.16-1.588 15h67.403v-30z"/></g></svg>