<svg id="Layer_1" height="512" viewBox="0 0 512 512" width="512" xmlns="http://www.w3.org/2000/svg" xmlns:xlink="http://www.w3.org/1999/xlink" data-name="Layer 1"><linearGradient id="linear-gradient" gradientUnits="userSpaceOnUse" x1="256" x2="256" y1="477.053" y2="83.781"><stop offset=".322" stop-color="#a163f5"/><stop offset=".466" stop-color="#b074ee"/><stop offset=".752" stop-color="#d8a1dd"/><stop offset=".898" stop-color="#efbad3"/></linearGradient><path d="m498.907 249.889c-7.7 1.113-68.841.467-110.037-.265a131.5 131.5 0 0 0 -7.492-37.6c53.656-20.869 54.033-21.751 55.315-24.766a6 6 0 0 0 -9.429-6.9c-1.727.947-10.126 4.864-50.434 20.561a132.831 132.831 0 0 0 -23.245-34.562c7.128-6.885 22.493-21.757 37.723-36.7 43.592-42.789 43.592-43.911 43.592-47.242a6 6 0 0 0 -11.457-2.5c-4.684 6.264-48.763 49.413-78.414 78.022a132.8 132.8 0 0 0 -31.711-21.137c23.447-53.283 23.091-54.172 21.862-57.22a6 6 0 0 0 -11.549 1.786c-.555 1.9-3.752 10.684-21.375 50.775a131.555 131.555 0 0 0 -40.651-7.983c.168-9.656.526-31.448.729-53.18.571-61.073-.222-61.867-2.577-64.222a6 6 0 0 0 -9.868 6.336c1.123 7.775.455 69.961-.285 111.157a131.444 131.444 0 0 0 -37.6 7.581c-9.48-23.862-20.671-53.19-20.791-53.506a6 6 0 1 0 -11.213 4.276c.121.318 11.383 29.834 20.909 53.806a132.809 132.809 0 0 0 -33.641 22.523c-11-9.8-53.38-53.2-79.845-80.678a6 6 0 1 0 -8.644 8.324c.2.209 20.377 21.155 40.671 41.833 22.579 23 33.552 33.865 39.372 39a132.862 132.862 0 0 0 -21.533 31.94c-23.611-10.182-52.408-23.073-52.719-23.211a6 6 0 1 0 -4.9 10.951c.311.14 29.226 13.083 52.933 23.306a131.5 131.5 0 0 0 -8.1 39.718c-14.919.836-75.342.123-113.385-.6a6 6 0 1 0 -.226 12c.29.006 29.368.551 58.339.821 12.592.118 22.616.178 30.625.178 12.353 0 19.893-.143 24.623-.433a131.562 131.562 0 0 0 7.241 37.879c-23.84 9.469-53.074 20.626-53.389 20.745a6 6 0 1 0 4.269 11.214c.317-.121 29.649-11.314 53.579-20.821a132.785 132.785 0 0 0 22.391 34.035c-10.465 11.6-53.162 53.294-80.319 79.445a6 6 0 0 0 8.324 8.645c.209-.2 21.155-20.377 41.833-40.672 22.413-22 33.3-32.981 38.59-38.913a132.875 132.875 0 0 0 31.973 21.855c-10.119 23.441-22.7 51.552-22.838 51.855a6 6 0 1 0 10.952 4.9c.136-.3 12.751-28.486 22.906-52.009a131.465 131.465 0 0 0 40.086 8.351c.885 13.968.162 75.408-.564 113.914a6 6 0 0 0 5.885 6.112h.116a6 6 0 0 0 6-5.887c0-.29.551-29.368.821-58.339.306-32.709.22-48.124-.287-55.753a131.553 131.553 0 0 0 37.889-7.144c20.829 53.542 21.71 53.918 24.722 55.2a6 6 0 0 0 6.9-9.428c-.944-1.725-4.847-10.093-20.472-50.208a132.8 132.8 0 0 0 34.933-23.082c7.043 7.289 21.652 22.379 36.329 37.333 42.782 43.589 43.9 43.589 47.235 43.589a6 6 0 0 0 2.5-11.457c-6.232-4.659-48.974-48.314-77.584-77.959a132.883 132.883 0 0 0 21.49-31.78c42.042 18.493 50.948 21.929 54.384 21.929a4.677 4.677 0 0 0 1.963-.45 6 6 0 0 0 -1.787-11.548c-1.885-.55-10.547-3.7-49.852-20.971a131.557 131.557 0 0 0 8.234-41.037c10.133.175 31.135.514 52.09.71 12.592.118 22.615.178 30.624.178 30.836 0 31.729-.886 33.6-2.755a6 6 0 0 0 -6.335-9.868zm-242.214 126.868a120.349 120.349 0 1 1 120.349-120.349 120.485 120.485 0 0 1 -120.349 120.349z" fill="url(#linear-gradient)"/></svg>